<svg width="33" height="32" viewBox="0 0 33 32" fill="none" xmlns="http://www.w3.org/2000/svg">
<g id="streamlinehq-travel-transportation-bicycle-bike-          duo-48-ico_MVKYGZ3eSBoQh9MQ">
<path id="Vector" d="M25.8333 26C22.8878 26 20.5 23.6122 20.5 20.6667C20.5 17.7212 22.8878 15.3334 25.8333 15.3334C28.7788 15.3334 31.1666 17.7212 31.1666 20.6667C31.1666 23.6122 28.7788 26 25.8333 26Z" stroke="#57DBC5" stroke-width="1.5" stroke-linecap="round" stroke-linejoin="round"/>
<path id="Vector_2" d="M25.1667 6.66663C22.5 6.99996 20.8334 7.99996 20.8334 7.99996L25.1667 20.3333" stroke="#57DBC5" stroke-width="1.5" stroke-linecap="round" stroke-linejoin="round"/>
<path id="Vector_3" d="M21.8333 11C20.7222 13.1111 15.8333 20 15.8333 20C15.8333 20 10.5 21 6.5 20L12.1667 13" stroke="#57DBC5" stroke-width="1.5" stroke-linecap="round" stroke-linejoin="round"/>
<path id="Vector_4" d="M9.74204 15.9952C8.97857 15.5734 8.10064 15.3334 7.16671 15.3334C4.22119 15.3334 1.83337 17.7212 1.83337 20.6667C1.83337 23.6122 4.22119 26 7.16671 26C10.1122 26 12.5 23.6122 12.5 20.6667C12.5 20.5727 12.4976 20.4792 12.4928 20.3864" stroke="#57DBC5" stroke-width="1.5" stroke-linecap="round" stroke-linejoin="round"/>
<path id="Vector_5" d="M15.8333 20C14.6926 17.4902 12.1622 12.8432 11.1666 10.3334" stroke="#57DBC5" stroke-width="1.5" stroke-linecap="round" stroke-linejoin="round"/>
<path id="Vector_6" d="M14.1667 9.66663C14.1667 9.66663 11.1667 9.66663 8.5 10.6666" stroke="#57DBC5" stroke-width="1.5" stroke-linecap="round" stroke-linejoin="round"/>
</g>
</svg>
