<svg width="33" height="32" viewBox="0 0 33 32" fill="none" xmlns="http://www.w3.org/2000/svg">
<g id="streamlinehq-interface-calendar-check-          duo-48-ico_g44uzqcH6rA9Adpn">
<path id="Vector" d="M3.07265 26.6488C3.28247 28.1129 4.40146 29.2161 5.86753 29.4115C7.95447 29.6897 11.4546 30.0104 16.5 30.0104C21.5454 30.0104 25.0455 29.6897 27.1325 29.4115C28.5985 29.2161 29.7175 28.1129 29.9273 26.6488C30.1991 24.7529 30.5 21.7366 30.5 17.6771C30.5 13.6175 30.1991 10.6013 29.9273 8.70533C29.7175 7.24126 28.5985 6.13807 27.1325 5.94264C25.0455 5.66447 21.5454 5.34375 16.5 5.34375C11.4546 5.34374 7.95447 5.66447 5.86754 5.94264C4.40146 6.13807 3.28247 7.24126 3.07265 8.70533C2.80095 10.6013 2.5 13.6175 2.5 17.6771C2.5 21.7366 2.80095 24.7529 3.07265 26.6488Z" fill="white"/>
<path id="Vector_2" d="M11.1666 18.035L15.6794 22.6666L21.8333 14.6666" stroke="#57DBC5" stroke-width="1.5" stroke-linecap="round" stroke-linejoin="round"/>
<path id="Vector_3" d="M7.83507 5.71875C7.07758 5.79192 6.42258 5.86892 5.86754 5.9429C4.40146 6.13832 3.28247 7.24154 3.07265 8.7056C2.80095 10.6015 2.5 13.6178 2.5 17.6773C2.5 21.7369 2.80095 24.7531 3.07265 26.6491C3.28247 28.1131 4.40146 29.2163 5.86753 29.4117C7.95447 29.6899 11.4546 30.0107 16.5 30.0107C21.5454 30.0107 25.0455 29.6899 27.1325 29.4117C28.5985 29.2163 29.7175 28.1131 29.9273 26.6491C30.1991 24.7531 30.5 21.7369 30.5 17.6773C30.5 13.6178 30.1991 10.6015 29.9273 8.7056C29.7175 7.24154 28.5985 6.13832 27.1325 5.9429C26.5774 5.86892 25.9224 5.79192 25.1649 5.71876" stroke="#57DBC5" stroke-width="1.5" stroke-linecap="round" stroke-linejoin="round"/>
<path id="Vector_4" d="M19.8334 5.3931C18.8081 5.36182 17.6976 5.34375 16.5 5.34375C15.3024 5.34375 14.1919 5.36182 13.1666 5.3931" stroke="#57DBC5" stroke-width="1.5" stroke-linecap="round" stroke-linejoin="round"/>
<path id="Vector_5" d="M10.168 2.00249L10.1526 1.00261L10.168 2.00249ZM7.84211 4.48671L8.84191 4.50751L7.84211 4.48671ZM10.8321 2.00249L10.8475 1.00261L10.8321 2.00249ZM13.158 4.48671L12.1582 4.50751L13.158 4.48671ZM13.158 6.17995L14.1578 6.20075L13.158 6.17995ZM10.8321 8.6642L10.8167 7.66427L10.8321 8.6642ZM7.84211 6.17995L6.84233 6.20075L7.84211 6.17995ZM10.168 8.6642L10.1526 9.66407L10.168 8.6642ZM10.8475 1.00261C10.7363 1.0009 10.6205 1 10.5 1V3C10.6106 3 10.716 3.00083 10.8167 3.00237L10.8475 1.00261ZM10.5 1C10.3796 1 10.2638 1.0009 10.1526 1.00261L10.1834 3.00237C10.284 3.00083 10.3895 3 10.5 3V1ZM14.1578 6.20075C14.1634 5.93062 14.1667 5.64075 14.1667 5.33333H12.1667C12.1667 5.62627 12.1635 5.90227 12.1582 6.15916L14.1578 6.20075ZM14.1667 5.33333C14.1667 5.02592 14.1634 4.73605 14.1578 4.46592L12.1582 4.50751C12.1635 4.7644 12.1667 5.04039 12.1667 5.33333H14.1667ZM6.84233 4.46592C6.83671 4.73605 6.83337 5.02592 6.83337 5.33333H8.83337C8.83337 5.04039 8.83657 4.7644 8.84191 4.50751L6.84233 4.46592ZM6.83337 5.33333C6.83337 5.64075 6.83671 5.93062 6.84233 6.20075L8.84191 6.15916C8.83657 5.90227 8.83337 5.62627 8.83337 5.33333H6.83337ZM10.1526 9.66407C10.2638 9.66573 10.3796 9.66667 10.5 9.66667V7.66667C10.3895 7.66667 10.284 7.66587 10.1834 7.66427L10.1526 9.66407ZM10.5 9.66667C10.6205 9.66667 10.7363 9.66573 10.8475 9.66407L10.8167 7.66427C10.716 7.66587 10.6106 7.66667 10.5 7.66667V9.66667ZM10.1526 1.00261C8.13677 1.03362 6.88037 2.63691 6.84233 4.46592L8.84191 4.50751C8.86157 3.56321 9.42557 3.01403 10.1834 3.00237L10.1526 1.00261ZM10.8167 3.00237C11.5745 3.01403 12.1385 3.56321 12.1582 4.50751L14.1578 4.46592C14.1197 2.63691 12.8633 1.03362 10.8475 1.00261L10.8167 3.00237ZM12.1582 6.15916C12.1385 7.10347 11.5745 7.65267 10.8167 7.66427L10.8475 9.66407C12.8633 9.63307 14.1197 8.02973 14.1578 6.20075L12.1582 6.15916ZM6.84233 6.20075C6.88037 8.02973 8.13677 9.63307 10.1526 9.66407L10.1834 7.66427C9.42557 7.65267 8.86157 7.10347 8.84191 6.15916L6.84233 6.20075Z" fill="#57DBC5"/>
<path id="Vector_6" d="M22.168 2.00249L22.1526 1.00261L22.168 2.00249ZM19.8421 4.48671L20.8419 4.50751L19.8421 4.48671ZM22.8321 2.00249L22.8475 1.00261L22.8321 2.00249ZM25.158 4.48671L24.1582 4.50751L25.158 4.48671ZM25.158 6.17995L26.1578 6.20075L25.158 6.17995ZM22.8321 8.6642L22.8167 7.66427L22.8321 8.6642ZM19.8421 6.17995L18.8423 6.20075L19.8421 6.17995ZM22.168 8.6642L22.1526 9.66407L22.168 8.6642ZM22.8475 1.00261C22.7363 1.0009 22.6205 1 22.5 1V3C22.6106 3 22.716 3.00083 22.8167 3.00237L22.8475 1.00261ZM22.5 1C22.3796 1 22.2638 1.0009 22.1526 1.00261L22.1834 3.00237C22.284 3.00083 22.3895 3 22.5 3V1ZM26.1578 6.20075C26.1634 5.93062 26.1667 5.64075 26.1667 5.33333H24.1667C24.1667 5.62627 24.1635 5.90227 24.1582 6.15916L26.1578 6.20075ZM26.1667 5.33333C26.1667 5.02592 26.1634 4.73605 26.1578 4.46592L24.1582 4.50751C24.1635 4.7644 24.1667 5.0404 24.1667 5.33333H26.1667ZM18.8423 4.46592C18.8367 4.73605 18.8334 5.02592 18.8334 5.33333H20.8334C20.8334 5.0404 20.8366 4.7644 20.8419 4.50751L18.8423 4.46592ZM18.8334 5.33333C18.8334 5.64075 18.8367 5.93062 18.8423 6.20075L20.8419 6.15916C20.8366 5.90227 20.8334 5.62627 20.8334 5.33333H18.8334ZM22.1526 9.66407C22.2638 9.66573 22.3796 9.66667 22.5 9.66667V7.66667C22.3895 7.66667 22.284 7.66587 22.1834 7.66427L22.1526 9.66407ZM22.5 9.66667C22.6205 9.66667 22.7363 9.66573 22.8475 9.66407L22.8167 7.66427C22.716 7.66587 22.6106 7.66667 22.5 7.66667V9.66667ZM22.1526 1.00261C20.1368 1.03362 18.8804 2.63691 18.8423 4.46592L20.8419 4.50751C20.8616 3.56321 21.4256 3.01403 22.1834 3.00237L22.1526 1.00261ZM22.8167 3.00237C23.5745 3.01403 24.1385 3.56321 24.1582 4.50751L26.1578 4.46592C26.1197 2.63691 24.8633 1.03362 22.8475 1.00261L22.8167 3.00237ZM24.1582 6.15916C24.1385 7.10347 23.5745 7.65267 22.8167 7.66427L22.8475 9.66407C24.8633 9.63307 26.1197 8.02973 26.1578 6.20075L24.1582 6.15916ZM18.8423 6.20075C18.8804 8.02973 20.1368 9.63307 22.1526 9.66407L22.1834 7.66427C21.4256 7.65267 20.8616 7.10347 20.8419 6.15916L18.8423 6.20075Z" fill="#57DBC5"/>
</g>
</svg>
