<svg width="33" height="32" viewBox="0 0 33 32" fill="none" xmlns="http://www.w3.org/2000/svg">
<g id="streamlinehq-interface-favorite-star-5-          duo-48-ico_M6esoYOndHEVqhfN">
<path id="Vector" d="M22.62 21.4306C22.3702 22.1898 21.2964 22.1898 21.0466 21.4306L19.368 16.3265C19.2858 16.0767 19.0899 15.8808 18.8401 15.7986L13.736 14.12C12.9768 13.8702 12.9768 12.7964 13.736 12.5466L18.8401 10.868C19.0899 10.7858 19.2858 10.5899 19.368 10.3401L21.0466 5.23601C21.2964 4.47683 22.3702 4.47683 22.62 5.23601L24.2986 10.3401C24.3808 10.5899 24.5767 10.7858 24.8265 10.868L29.9306 12.5466C30.6898 12.7964 30.6898 13.8702 29.9306 14.12L24.8265 15.7986C24.5767 15.8808 24.3808 16.0767 24.2986 16.3265L22.62 21.4306Z" stroke="#57DBC5" stroke-width="1.5" stroke-linecap="round" stroke-linejoin="round"/>
<path id="Vector_2" d="M11.8129 29.5322C11.6078 30.1559 10.7255 30.1559 10.5204 29.5322L9.25353 25.6802C9.186 25.4749 9.02507 25.314 8.8198 25.2464L4.96778 23.9796C4.34407 23.7744 4.34407 22.8922 4.96778 22.687L8.8198 21.4202C9.02507 21.3526 9.186 21.1917 9.25353 20.9864L10.5204 17.1344C10.7255 16.5107 11.6078 16.5107 11.8129 17.1344L13.0798 20.9864C13.1473 21.1917 13.3083 21.3526 13.5135 21.4202L17.3655 22.687C17.9893 22.8922 17.9893 23.7744 17.3655 23.9796L13.5135 25.2464C13.3083 25.314 13.1473 25.4749 13.0798 25.6802L11.8129 29.5322Z" stroke="#57DBC5" stroke-width="1.5" stroke-linecap="round" stroke-linejoin="round"/>
<path id="Vector_3" d="M9.08167 13.579C8.897 14.1403 8.10293 14.1403 7.91833 13.579L6.77818 10.1122C6.71743 9.92746 6.57255 9.7826 6.38783 9.7218L2.92101 8.58167C2.35966 8.397 2.35966 7.60293 2.92101 7.41833L6.38783 6.27818C6.57255 6.21743 6.71743 6.07255 6.77818 5.88783L7.91833 2.42101C8.10293 1.85966 8.89707 1.85966 9.08167 2.42101L10.2218 5.88783C10.2826 6.07255 10.4275 6.21743 10.6122 6.27818L14.079 7.41833C14.6403 7.60293 14.6403 8.39707 14.079 8.58167L10.6122 9.7218C10.4275 9.7826 10.2826 9.92746 10.2218 10.1122L9.08167 13.579Z" stroke="#57DBC5" stroke-width="1.5" stroke-linecap="round" stroke-linejoin="round"/>
</g>
</svg>
