<svg width="33" height="32" viewBox="0 0 33 32" fill="none" xmlns="http://www.w3.org/2000/svg">
<g id="streamlinehq-interface-help-question-message-square-          duo-48-ico_pv4CtoGS9Mal6Yog">
<path id="Vector" d="M18.5456 19.3333C18.5456 20.622 17.5009 21.6667 16.2122 21.6667C14.9236 21.6667 13.8789 20.622 13.8789 19.3333C13.8789 18.0447 14.9236 17 16.2122 17C17.5009 17 18.5456 18.0447 18.5456 19.3333Z" fill="white"/>
<path id="Vector_2" d="M17.925 5.66663C15.2764 5.66663 13.0328 7.23996 12.5918 8.99996C12.1954 10.5824 13.1191 11.9492 14.657 11.9186C15.0714 11.9104 15.4559 11.7256 15.8125 11.5144C16.363 11.1883 17.2345 10.6831 17.925 10.3333C16.569 11.0835 14.1457 12.1978 14.1457 13.8444L14.1436 15.3306C14.1423 16.252 14.8889 16.9996 15.8103 16.9996H16.5459C17.1181 16.9996 17.623 16.7112 17.923 16.2719C18.2692 15.7649 18.552 15.1559 19.0873 14.8552C21.1085 13.72 22.5917 12.5807 22.5917 10.3333C22.5917 7.99996 21.1838 5.66663 17.925 5.66663Z" fill="white" stroke="#57DBC5" stroke-width="1.5" stroke-linejoin="round"/>
<path id="Vector_3" d="M5.99256 24.6275C4.29627 24.5144 2.96553 23.2571 2.81326 21.5639C2.65352 19.7875 2.5 17.1269 2.5 13.4613C2.5 9.79573 2.65352 7.135 2.81326 5.35863C2.96553 3.6654 4.29627 2.40813 5.99257 2.29511C8.14507 2.15167 11.5851 2 16.5083 2C21.4313 2 24.8714 2.15167 27.0239 2.29511C28.7202 2.40814 30.0509 3.66541 30.2032 5.35863C30.3629 7.135 30.5165 9.79573 30.5165 13.4613C30.5165 17.1269 30.3629 19.7875 30.2032 21.5639C30.0509 23.2571 28.7202 24.5144 27.0239 24.6275C25.1373 24.7532 22.2616 24.8852 18.2653 24.9159L12.9936 29.6087C12.1339 30.374 10.7737 29.7638 10.7737 28.6129V24.8458C8.7648 24.7885 7.18207 24.7067 5.99256 24.6275Z" stroke="#57DBC5" stroke-width="1.5" stroke-linecap="round" stroke-linejoin="round"/>
<path id="Vector_4" d="M16.212 21.6667C17.5007 21.6667 18.5453 20.622 18.5453 19.3333C18.5453 18.0447 17.5007 17 16.212 17C14.9233 17 13.8787 18.0447 13.8787 19.3333C13.8787 20.622 14.9233 21.6667 16.212 21.6667Z" stroke="#57DBC5" stroke-width="1.5" stroke-linecap="round" stroke-linejoin="round"/>
</g>
</svg>
