<svg width="33" height="32" viewBox="0 0 33 32" fill="none" xmlns="http://www.w3.org/2000/svg">
<g id="streamlinehq-computer-laptop-          duo-48-ico_W2EPx2LpnZ9Kk2Kw">
<path id="Vector" d="M16.5001 27.3333C10.087 27.3333 6.49921 27.0603 4.66205 26.8437C3.59319 26.7177 2.8281 26.0011 2.71303 24.9311C2.66935 24.5248 2.62459 24.0216 2.58175 23.3994C2.52941 22.639 3.13861 22 3.9008 22H11.6985C12.1665 22 12.5804 22.3036 12.721 22.75C12.8615 23.1964 13.2755 23.5 13.7435 23.5H19.2567C19.7247 23.5 20.1387 23.1964 20.2792 22.75C20.4198 22.3036 20.8337 22 21.3017 22H29.0993C29.8615 22 30.4707 22.639 30.4183 23.3994C30.3755 24.0216 30.3307 24.5248 30.2871 24.9311C30.172 26.0011 29.4069 26.7177 28.3381 26.8437C26.5009 27.0603 22.9131 27.3333 16.5001 27.3333Z" stroke="#57DBC5" stroke-width="1.5" stroke-linecap="round" stroke-linejoin="round"/>
<path id="Vector_2" d="M4.04252 22C3.92813 20.5277 3.83337 18.3866 3.83337 15.3333C3.83337 11.4061 3.99013 8.98809 4.14381 7.56116C4.26981 6.39135 5.07849 5.50527 6.23804 5.30573C7.96264 5.00894 11.1183 4.66663 16.5 4.66663C21.8818 4.66663 25.0374 5.00894 26.762 5.30573C27.9216 5.50527 28.7303 6.39134 28.8562 7.56116C29.01 8.98809 29.1667 11.4061 29.1667 15.3333C29.1667 18.3866 29.072 20.5277 28.9576 22" stroke="#57DBC5" stroke-width="1.5" stroke-linecap="round" stroke-linejoin="round"/>
</g>
</svg>
