<svg width="33" height="32" viewBox="0 0 33 32" fill="none" xmlns="http://www.w3.org/2000/svg">
<g id="streamlinehq-nature-ecology-sunset-          duo-48-ico_871MS6DVo80W3pPM">
<path id="Vector" d="M24.7487 18.6667C25.0201 17.8266 25.1667 16.9304 25.1667 16C25.1667 11.2136 21.2865 7.33337 16.5 7.33337C11.7136 7.33337 7.83337 11.2136 7.83337 16C7.83337 16.9304 7.97997 17.8266 8.25137 18.6667" stroke="#57DBC5" stroke-width="1.5" stroke-linecap="round" stroke-linejoin="round"/>
<path id="Vector_2" d="M16.5 2V4" stroke="#57DBC5" stroke-width="1.5" stroke-linecap="round" stroke-linejoin="round"/>
<path id="Vector_3" d="M30.5 16H28.5" stroke="#57DBC5" stroke-width="1.5" stroke-linecap="round" stroke-linejoin="round"/>
<path id="Vector_4" d="M4.5 16H2.5" stroke="#57DBC5" stroke-width="1.5" stroke-linecap="round" stroke-linejoin="round"/>
<path id="Vector_5" d="M8.0147 7.51495L6.60046 6.10071" stroke="#57DBC5" stroke-width="1.5" stroke-linecap="round" stroke-linejoin="round"/>
<path id="Vector_6" d="M24.9854 7.51495L26.3996 6.10071" stroke="#57DBC5" stroke-width="1.5" stroke-linecap="round" stroke-linejoin="round"/>
<path id="Vector_7" d="M2.5 30C3.75984 30 5.01968 29.6291 6.11337 28.8873C6.73753 28.4639 7.5958 28.4639 8.21993 28.8873C9.31367 29.6291 10.5735 30 11.8333 30C13.0932 30 14.353 29.6291 15.4467 28.8873C16.0709 28.4639 16.9291 28.4639 17.5533 28.8873C18.647 29.6291 19.9068 30 21.1667 30C22.4265 30 23.6863 29.6291 24.7801 28.8873C25.4042 28.4639 26.2625 28.4639 26.8866 28.8873C27.9803 29.6291 29.2401 30 30.5 30" stroke="#57DBC5" stroke-width="1.5" stroke-linecap="round" stroke-linejoin="round"/>
<path id="Vector_8" d="M2.5 24.6666C3.75984 24.6666 5.01968 24.2957 6.11337 23.5539C6.73753 23.1305 7.5958 23.1305 8.21993 23.5539C9.31367 24.2957 10.5735 24.6666 11.8333 24.6666C13.0932 24.6666 14.353 24.2957 15.4467 23.5539C16.0709 23.1305 16.9291 23.1305 17.5533 23.5539C18.647 24.2957 19.9068 24.6666 21.1667 24.6666C22.4265 24.6666 23.6863 24.2957 24.7801 23.5539C25.4042 23.1305 26.2625 23.1305 26.8866 23.5539C27.9803 24.2957 29.2401 24.6666 30.5 24.6666" stroke="#57DBC5" stroke-width="1.5" stroke-linecap="round" stroke-linejoin="round"/>
</g>
</svg>
