<svg width="33" height="32" viewBox="0 0 33 32" fill="none" xmlns="http://www.w3.org/2000/svg">
<g id="streamlinehq-interface-security-shield-1-          duo-48-ico_moCsoi1GDRS87feA">
<path id="Vector" d="M8.06064 9.25823C8.16771 8.17389 8.82444 7.28916 9.89671 7.09569C11.104 6.87789 13.1408 6.66663 16.5 6.66663C19.8592 6.66663 21.8961 6.87789 23.1034 7.09569C24.1756 7.28916 24.8324 8.17389 24.9394 9.25823C25.0512 10.3894 25.1667 12.008 25.1667 13.8666C25.1667 17.4094 23.4469 20.6738 20.5652 22.7346C19.096 23.7852 17.5505 24.6666 16.5 24.6666C15.4496 24.6666 13.904 23.7852 12.4349 22.7346C9.55317 20.6738 7.83337 17.4094 7.83337 13.8666C7.83337 12.008 7.94891 10.3894 8.06064 9.25823Z" fill="white"/>
<path id="Vector_2" d="M2.95772 5.20121C3.09147 4.04803 3.79109 3.09601 4.92461 2.84533C6.69272 2.45431 10.1199 2 16.5 2C22.8801 2 26.3073 2.45431 28.0754 2.84533C29.2089 3.09601 29.9085 4.04803 30.0423 5.20121C30.2445 6.94507 30.5 9.81707 30.5 13.2C30.5 19.5199 27.1645 25.4335 21.5452 28.3255C19.6681 29.2916 17.8361 30 16.5 30C15.1639 30 13.3319 29.2916 11.4548 28.3255C5.83545 25.4335 2.5 19.5199 2.5 13.2C2.5 9.81707 2.75545 6.94507 2.95772 5.20121Z" stroke="#57DBC5" stroke-width="1.5" stroke-linecap="round" stroke-linejoin="round"/>
<path id="Vector_3" d="M8.06064 9.25823C8.16771 8.17389 8.82444 7.28916 9.89671 7.09569C11.104 6.87789 13.1408 6.66663 16.5 6.66663C19.8592 6.66663 21.8961 6.87789 23.1034 7.09569C24.1756 7.28916 24.8324 8.17389 24.9394 9.25823C25.0512 10.3894 25.1667 12.008 25.1667 13.8666C25.1667 17.4094 23.4469 20.6738 20.5652 22.7346C19.096 23.7852 17.5505 24.6666 16.5 24.6666C15.4496 24.6666 13.904 23.7852 12.4349 22.7346C9.55317 20.6738 7.83337 17.4094 7.83337 13.8666C7.83337 12.008 7.94891 10.3894 8.06064 9.25823Z" stroke="#57DBC5" stroke-width="1.5" stroke-linecap="round" stroke-linejoin="round"/>
</g>
</svg>
