<svg width="33" height="32" viewBox="0 0 33 32" fill="none" xmlns="http://www.w3.org/2000/svg">
<g id="streamlinehq-interface-favorite-star-circle-          duo-48-ico_V0THJ2Rh9BOMnhdU">
<path id="Vector" d="M15.3167 8.28195C15.8142 7.32268 17.1864 7.32268 17.6839 8.28195L19.5575 11.8942L23.5298 12.6764C24.5452 12.8764 24.9556 14.1066 24.2636 14.8761L21.447 18.0087L21.9643 22.2008C22.0946 23.2564 20.9972 24.0321 20.0456 23.5571L16.5003 21.7876L12.955 23.5571C12.0034 24.0321 10.906 23.2564 11.0363 22.2008L11.5536 18.0087L8.73698 14.8761C8.04498 14.1066 8.45545 12.8764 9.47085 12.6764L13.4431 11.8942L15.3167 8.28195Z" fill="white"/>
<path id="Vector_2" d="M30.5 16C30.5 23.732 24.232 30 16.5 30C8.76801 30 2.5 23.732 2.5 16C2.5 8.26801 8.76801 2 16.5 2C24.232 2 30.5 8.26801 30.5 16Z" stroke="#57DBC5" stroke-width="1.5" stroke-linecap="round" stroke-linejoin="round"/>
<path id="Vector_3" d="M15.3163 8.28195C15.8139 7.32268 17.186 7.32268 17.6835 8.28195L19.5571 11.8942L23.5294 12.6764C24.5448 12.8764 24.9553 14.1066 24.2633 14.8761L21.4466 18.0087L21.9639 22.2008C22.0942 23.2564 20.9968 24.0321 20.0452 23.5571L16.4999 21.7876L12.9547 23.5571C12.0031 24.0321 10.9057 23.2564 11.0359 22.2008L11.5533 18.0087L8.73658 14.8761C8.04465 14.1066 8.45505 12.8764 9.47045 12.6764L13.4427 11.8942L15.3163 8.28195Z" stroke="#57DBC5" stroke-width="1.5" stroke-linecap="round" stroke-linejoin="round"/>
</g>
</svg>
