<svg width="33" height="32" viewBox="0 0 33 32" fill="none" xmlns="http://www.w3.org/2000/svg">
<g id="streamlinehq-travel-places-government-building-1-          duo-48-ico_VDnx7DjZRuziA4Ul">
<path id="Vector" d="M8.62984 11.4531C8.37124 18.6008 8.57884 29.9778 8.57924 30.0002H3.83337V21.0663C3.83337 17.8447 3.91341 15.4529 3.99102 13.8909C4.05468 12.6096 5.05899 11.6109 6.34026 11.5473C6.96622 11.5161 7.72824 11.4834 8.62984 11.4531Z" fill="white"/>
<path id="Vector_2" d="M24.3698 11.4531C24.6286 18.6079 24.4204 30.0003 24.4204 30.0003L29.1662 30.0002V21.0663C29.1662 17.8447 29.0862 15.4529 29.0086 13.8909C28.9449 12.6097 27.9406 11.611 26.6594 11.5473C26.0334 11.5161 25.2714 11.4834 24.3698 11.4531Z" fill="white"/>
<path id="Vector_3" d="M16.5 10C17.6046 10 18.5 9.10457 18.5 8C18.5 6.89543 17.6046 6 16.5 6C15.3954 6 14.5 6.89543 14.5 8C14.5 9.10457 15.3954 10 16.5 10Z" fill="white"/>
<path id="Vector_4" d="M16.5 22C15.0273 22 13.8334 23.1931 13.8334 24.6659C13.8334 26.3436 13.8334 28.4725 13.8334 30H19.1667C19.1667 28.4725 19.1667 26.3436 19.1667 24.6659C19.1667 23.1931 17.9728 22 16.5 22Z" fill="white"/>
<path id="Vector_5" d="M8.57921 30C8.57921 30 8.28721 14.0263 8.82448 8.0294C8.86575 7.56853 9.03655 7.13407 9.32968 6.77607C11.7849 3.77835 15.2544 2 16.4145 2C17.5748 2 21.1969 3.77867 23.6693 6.77687C23.9637 7.13387 24.1343 7.56853 24.1755 8.0294C24.7128 14.0263 24.4208 30 24.4208 30" stroke="#57DBC5" stroke-width="1.5" stroke-linecap="round" stroke-linejoin="round"/>
<path id="Vector_6" d="M8.62984 11.4531C7.72824 11.4834 6.96622 11.5161 6.34026 11.5473C5.05899 11.6109 4.05468 12.6096 3.99102 13.8909C3.91341 15.4529 3.83337 17.8447 3.83337 21.0663V30.0002" stroke="#57DBC5" stroke-width="1.5" stroke-linecap="round" stroke-linejoin="round"/>
<path id="Vector_7" d="M24.3698 11.4531C25.2714 11.4834 26.0334 11.5161 26.6594 11.5473C27.9406 11.611 28.9449 12.6097 29.0086 13.8909C29.0862 15.4529 29.1662 17.8447 29.1662 21.0663V30.0002" stroke="#57DBC5" stroke-width="1.5" stroke-linecap="round" stroke-linejoin="round"/>
<path id="Vector_8" d="M16.5 10C17.6046 10 18.5 9.10457 18.5 8C18.5 6.89543 17.6046 6 16.5 6C15.3954 6 14.5 6.89543 14.5 8C14.5 9.10457 15.3954 10 16.5 10Z" stroke="#57DBC5" stroke-width="1.5" stroke-linecap="round" stroke-linejoin="round"/>
<path id="Vector_9" d="M19.1667 30C19.1667 28.5578 19.1667 26.1115 19.1667 24.6659C19.1667 23.1931 17.9728 22 16.5 22C15.0273 22 13.8334 23.1931 13.8334 24.6659C13.8334 26.1115 13.8334 28.5578 13.8334 30" stroke="#57DBC5" stroke-width="1.5" stroke-linecap="round" stroke-linejoin="round"/>
<path id="Vector_10" d="M13.8334 12.6666V14" stroke="#57DBC5" stroke-width="1.5" stroke-linecap="round" stroke-linejoin="round"/>
<path id="Vector_11" d="M13.8334 17.3334V18.6667" stroke="#57DBC5" stroke-width="1.5" stroke-linecap="round" stroke-linejoin="round"/>
<path id="Vector_12" d="M19.1666 12.6666V14" stroke="#57DBC5" stroke-width="1.5" stroke-linecap="round" stroke-linejoin="round"/>
<path id="Vector_13" d="M19.1666 17.3334V18.6667" stroke="#57DBC5" stroke-width="1.5" stroke-linecap="round" stroke-linejoin="round"/>
<path id="Vector_14" d="M30.5 30H2.5" stroke="#57DBC5" stroke-width="1.5" stroke-linecap="round" stroke-linejoin="round"/>
</g>
</svg>
