<svg width="33" height="32" viewBox="0 0 33 32" fill="none" xmlns="http://www.w3.org/2000/svg">
<g id="streamlinehq-nature-ecology-tree-1-          duo-48-ico_wmzYsb5zapRiok1F">
<path id="Vector" d="M10.5 30H22.5" stroke="#57DBC5" stroke-width="1.5" stroke-linecap="round" stroke-linejoin="round"/>
<path id="Vector_2" d="M14.246 30C14.246 30 14.7325 27.8179 14.8199 22.7916C14.3378 22.3291 13.6522 21.6612 12.7455 20.7545C11.7935 19.8025 11.1048 19.0943 10.6407 18.6094C10.1586 18.1056 10.0266 17.38 10.5039 16.8715C10.5418 16.8312 10.5819 16.7899 10.6241 16.7475C10.6665 16.7052 10.7079 16.6652 10.7482 16.6273C11.2566 16.15 11.9822 16.2819 12.4861 16.7641C12.9709 17.2282 13.6791 17.9169 14.6311 18.8689C14.7048 18.9426 14.7769 19.0148 14.8475 19.0856C14.8939 15.7127 15.0422 13.7256 15.1192 12.896C15.1475 12.5919 15.2487 12.2861 15.5285 12.1639C15.7311 12.0755 16.0391 12 16.5 12C16.9609 12 17.2688 12.0755 17.4714 12.1639C17.7513 12.2861 17.8525 12.5919 17.8807 12.896C17.9213 13.3327 17.9816 14.0904 18.0364 15.2021C18.1435 15.0945 18.2543 14.9835 18.3689 14.8689C19.3208 13.9169 20.029 13.2282 20.5139 12.7641C21.0177 12.2819 21.7433 12.15 22.2518 12.6273C22.2921 12.6652 22.3335 12.7052 22.3758 12.7475C22.4181 12.7899 22.4581 12.8312 22.496 12.8715C22.9733 13.38 22.8414 14.1056 22.3592 14.6094C21.8951 15.0943 21.2064 15.8025 20.2545 16.7545C19.3278 17.6811 18.6321 18.3583 18.1485 18.8217C18.16 19.5525 18.1667 20.3509 18.1667 21.2195C18.1667 27.3659 18.7539 30 18.7539 30" stroke="#57DBC5" stroke-width="1.5" stroke-linecap="round" stroke-linejoin="round"/>
<path id="Vector_3" d="M14.7354 25.3076C12.8036 25.2517 11.0264 25.1112 9.51398 24.9486C6.53395 24.6281 4.30495 22.1174 4.64563 19.1396C5.70088 9.91591 10.8621 1.33337 16.5001 1.33337C22.1381 1.33337 27.2994 9.91591 28.3546 19.1396C28.6953 22.1174 26.4663 24.6281 23.4862 24.9486C21.9738 25.1112 20.1966 25.2517 18.2647 25.3076" stroke="#57DBC5" stroke-width="1.5" stroke-linecap="round" stroke-linejoin="round"/>
</g>
</svg>
