<svg width="33" height="32" viewBox="0 0 33 32" fill="none" xmlns="http://www.w3.org/2000/svg">
<g id="streamlinehq-interface-user-single-male-          duo-48-ico_ecNmAWfK3Okmxwfd">
<path id="Vector" d="M7.16663 11.3333C7.16663 16.488 11.3453 20.6667 16.5 20.6667C21.6546 20.6667 25.8333 16.488 25.8333 11.3333C25.8333 6.17867 21.6546 2 16.5 2C11.3453 2 7.16663 6.17867 7.16663 11.3333Z" fill="white"/>
<path id="Vector_2" d="M25.8333 11.3333C25.8333 16.488 21.6546 20.6667 16.5 20.6667C11.3453 20.6667 7.16663 16.488 7.16663 11.3333C7.16663 6.17867 11.3453 2 16.5 2C21.6546 2 25.8333 6.17867 25.8333 11.3333Z" stroke="#57DBC5" stroke-width="1.5" stroke-linecap="round" stroke-linejoin="round"/>
<path id="Vector_3" d="M12.7344 19.8756C9.33843 20.8886 6.68342 23.2333 5.64323 26.1695C5.07896 27.7623 6.248 29.2605 7.92096 29.4983C9.71949 29.7539 12.4912 29.9997 16.5 29.9997C20.5087 29.9997 23.2804 29.7539 25.0789 29.4983C26.7519 29.2605 27.921 27.7623 27.3567 26.1695C26.3165 23.2333 23.6615 20.8886 20.2654 19.8756" stroke="#57DBC5" stroke-width="1.5" stroke-linecap="round" stroke-linejoin="round"/>
<path id="Vector_4" d="M25.8333 11.3333C20.6786 11.3333 16.5 7.15467 16.5 2C16.5 7.15467 12.3213 11.3333 7.16663 11.3333" stroke="#57DBC5" stroke-width="1.5" stroke-linecap="round" stroke-linejoin="round"/>
<path id="Vector_5" d="M20.0028 16.2153C20.3058 15.7536 20.1771 15.1336 19.7154 14.8306C19.2536 14.5276 18.6336 14.6562 18.3306 15.118L20.0028 16.2153ZM14.6694 15.118C14.3664 14.6562 13.7464 14.5276 13.2847 14.8306C12.823 15.1336 12.6943 15.7536 12.9973 16.2153L14.6694 15.118ZM18.3306 15.118C17.9703 15.6671 17.2807 16 16.5 16C15.7194 16 15.0298 15.6671 14.6694 15.118L12.9973 16.2153C13.8036 17.4439 15.1974 18 16.5 18C17.8027 18 19.1964 17.4439 20.0028 16.2153L18.3306 15.118Z" fill="#57DBC5"/>
<path id="Vector_6" d="M13.1666 12V12.3333" stroke="#57DBC5" stroke-width="1.5" stroke-linecap="round" stroke-linejoin="round"/>
<path id="Vector_7" d="M19.834 12V12.3333" stroke="#57DBC5" stroke-width="1.5" stroke-linecap="round" stroke-linejoin="round"/>
</g>
</svg>
